<svg version="1.1" viewBox="0 0 580 200" width="580" height="200" xmlns="http://www.w3.org/2000/svg" fill="white">

    <path d="M10 10 h 50 q 50 0 50 50 q 0 50 -50 50 h -20 v 65 l -15 15 l -15 -15
         v -95 h 50 q 20 0 20 -20 q 0 -20 -20 -20 h -50 l 15 -15 Z" />

    <path d="M 130 10 h 85 l 15 15 l -15 15 h -55 v 45 h 50 v 30 h -50
        v 45 h 65 l -15 15 l 15 15 h -95 Z" />

    <path d="M 260 10 h 30 l 40 60 l 40 -60 h 30 v 165 l -15 15 l -15 -15 v -115
         l -40 60 l -40 -60 v 130 l -15 -15 l -15 15 Z" />

    <path d="M 430 100 q 0 -90 70 -90 q 70 0 70 90 q 0 90 -70 90 q -70 0 -70 -90
        M 460 100 q 0 60 40 60 q 40 0 40 -60 q 0 -60 -40 -60 q -40 0 -40 60" />

    <path d="M 485 100 q 0 -15 15 -15 q 15 0 15 15 q 0 15 -15 15 q -15 0 -15 -15" />

</svg>